<svg width="24" height="24" viewBox="0 0 24 24" fill="none" xmlns="http://www.w3.org/2000/svg">
<g clip-path="url(#clip0_2_416)">
<path d="M4.73981 9.04C5.49216 9.52 6.31975 10.08 7.0721 10.56C8.65204 11.6 10.1567 12.56 11.7367 13.6C11.8119 13.68 11.8871 13.68 11.9624 13.76C11.8871 13.84 11.8119 13.92 11.7367 14C10.3072 15.2 8.95298 16.48 7.52351 17.68C7.0721 18.08 6.77116 18.16 6.24451 17.76C4.2884 16.4 2.33229 15.04 0.30094 13.68C0.225705 13.6 0.0752351 13.52 0 13.36C0 13.28 0 13.2 0 13.12C0.15047 12.96 0.30094 12.8 0.526646 12.64C1.12853 12.16 1.73041 11.6 2.33229 11.12C3.15987 10.48 3.91223 9.76 4.73981 9.12C4.73981 9.04 4.73981 9.04 4.73981 9.04Z" fill="white"/>
<path d="M4.73981 9.04001H4.66458C4.66458 8.96001 4.58934 8.88001 4.51411 8.88001C3.0094 7.60001 1.5047 6.32001 0 4.96001C0 4.88001 0 4.80001 0 4.72001C0.0752351 4.56001 0.225705 4.48001 0.376176 4.40001C2.40752 3.04001 4.36364 1.60001 6.39498 0.240006C6.77116 -0.0799944 7.14734 -0.0799944 7.52351 0.320006C8.95298 1.60001 10.3824 2.88001 11.8119 4.16001C11.8871 4.24001 11.8871 4.32001 12.0376 4.32001C11.9624 4.32001 11.8871 4.40001 11.8119 4.40001C9.47962 5.92001 7.22257 7.44001 4.89028 8.88001C4.89028 8.96001 4.73981 8.96001 4.73981 9.04001Z" fill="white"/>
<path d="M4.81502 17.76C5.34167 18.16 5.86831 18.48 6.39496 18.88C6.84637 19.2 7.14731 19.2 7.59872 18.8C9.02819 17.52 10.4577 16.24 11.8871 14.96C12.0376 14.88 12.1128 14.8 12.1881 14.96C13.6175 16.24 15.1222 17.52 16.5517 18.8C16.9279 19.12 17.2288 19.12 17.6802 18.88C18.2069 18.56 18.7335 18.16 19.2602 17.76C19.2602 18.24 19.3354 18.72 19.1849 19.12C19.1097 19.44 18.9592 19.68 18.6583 19.84C16.4765 21.2 14.2946 22.64 12.1128 24C12.0376 24.08 11.9624 24.08 11.8119 24C9.63007 22.64 7.44825 21.2 5.26643 19.84C4.89026 19.6 4.66455 19.2 4.66455 18.8C4.81502 18.4 4.81502 18.08 4.81502 17.76Z" fill="white"/>
<path d="M19.3354 9.04C20.3135 9.84 21.2163 10.64 22.1944 11.44C22.721 11.84 23.2477 12.32 23.7743 12.8C24.1505 13.12 24.1505 13.36 23.6991 13.68C21.6677 15.04 19.7116 16.48 17.6803 17.84C17.3041 18.16 16.9279 18.08 16.5517 17.76C15.1975 16.56 13.9185 15.44 12.5643 14.24C12.1881 13.92 12.2633 13.68 12.5643 13.44C14.7461 12 17.0031 10.56 19.185 9.04C19.185 9.04 19.185 9.04 19.2602 9.04C19.2602 9.04 19.2602 9.04 19.3354 9.04Z" fill="white"/>
<path d="M19.3354 9.04H19.2602C19.2602 8.88 19.185 8.88 19.1097 8.88C16.8527 7.36 14.5956 5.92 12.3386 4.4C12.2633 4.32 12.1881 4.32 12.1129 4.24C12.8652 3.6 13.6176 2.96 14.2947 2.24C15.047 1.6 15.7994 0.960004 16.5517 0.240004C17.0031 -0.159996 17.3041 -0.159996 17.7555 0.160004C19.7868 1.52 21.7429 2.96 23.7743 4.32C24.2257 4.64 24.2257 4.88 23.8495 5.2C22.4201 6.4 20.9906 7.6 19.6364 8.8C19.4107 8.96 19.3354 8.96 19.3354 9.04Z" fill="white"/>
</g>
<defs>
<clipPath id="clip0_2_416">
<rect width="24" height="24" fill="white"/>
</clipPath>
</defs>
</svg>
