<svg width="21" height="24" viewBox="0 0 21 24" fill="none" xmlns="http://www.w3.org/2000/svg">
<g clip-path="url(#clip0_2_375)">
<path d="M17.9657 1.44H16.6629C16.6629 1.71429 16.6629 1.98857 16.6629 2.26286C16.6629 3.36 15.7714 4.25143 14.6743 4.25143H5.82857C4.73143 4.25143 3.84 3.36 3.84 2.26286C3.84 1.98857 3.84 1.71429 3.84 1.44H2.53714C1.16571 1.44 0 2.53715 0 3.97715V21.4629C0 22.8343 1.16571 24 2.53714 24H17.9657C19.4057 24 20.5029 22.8343 20.5029 21.4629V3.97715C20.5029 2.53715 19.3371 1.44 17.9657 1.44ZM14.9486 10.0114C14.88 10.2857 14.6743 10.4914 14.4686 10.6286L9.32572 15.7714C9.12 15.9771 8.91429 16.0457 8.70857 15.9771C8.57143 15.9771 8.43429 15.9086 8.29714 15.7714C7.40571 14.9486 6.58286 14.0571 5.69143 13.1657C5.41714 12.8914 5.41714 12.48 5.69143 12.2057C5.96571 11.9314 6.37714 11.9314 6.65143 12.2057C7.26857 12.8229 7.88571 13.44 8.57143 14.1257C8.70857 14.2629 8.84571 14.2629 8.98286 14.1257C10.56 12.5486 12.1371 10.9714 13.7143 9.39429C13.9886 9.12 14.3314 9.05143 14.6743 9.32572C14.8114 9.39429 14.88 9.53143 14.9486 9.73715V10.0114Z" fill="white"/>
<path d="M5.89713 2.81143C8.63999 2.81143 11.3828 2.81143 14.1943 2.81143C14.5371 2.81143 14.7428 2.60571 14.7428 2.26286C14.7428 1.71429 14.7428 1.16571 14.7428 0.617143C14.7428 0.342857 14.6743 0.137143 14.4 0C11.52 0 8.57142 0 5.69142 0C5.4857 0.137143 5.34856 0.274286 5.41713 0.548571C5.41713 1.16571 5.41713 1.71429 5.41713 2.33143C5.41713 2.60571 5.55427 2.81143 5.89713 2.81143Z" fill="white"/>
</g>
<defs>
<clipPath id="clip0_2_375">
<rect width="20.5029" height="24" fill="white"/>
</clipPath>
</defs>
</svg>
