<svg width="20" height="20" viewBox="0 0 20 20" fill="none" xmlns="http://www.w3.org/2000/svg">
<g clip-path="url(#clip0_2_330)">
<path d="M-1.6652e-05 18.8182C-1.6652e-05 15.7273 -1.6652e-05 12.5909 -1.6652e-05 9.49999C-1.6652e-05 9.49999 0.0454379 9.49999 0.0454379 9.45454C0.36362 8.63636 0.77271 8.31818 1.63635 8.31818C3.59089 8.31818 5.59089 8.31818 7.54544 8.31818C8.54544 8.31818 9.13635 8.90909 9.13635 9.90909C9.13635 11.5909 9.13635 13.2727 9.13635 14.9545C9.13635 16.0909 9.13635 17.2727 9.13635 18.4091C9.13635 19.1364 8.72725 19.6818 8.09089 19.8636C7.99998 19.8636 7.95453 19.8636 7.86362 19.9091C5.59089 19.9091 3.36362 19.9091 1.09089 19.9091C1.09089 19.8636 1.04544 19.8636 1.04544 19.8636C0.499983 19.7273 0.136347 19.3636 -0.0454712 18.7727C0.0454379 18.8636 0.0454379 18.8182 -1.6652e-05 18.8182Z" fill="white"/>
<path d="M12 0C14.2727 0 16.5 0 18.7727 0L18.8182 0.0454546C19.3636 0.136364 19.6818 0.454545 19.9091 0.909091C19.9545 1 20 1.09091 20 1.22727C20 4.31818 20 7.40909 20 10.5C19.9545 10.5 19.9545 10.5455 19.9545 10.5455C19.6818 11.3182 19.2273 11.6364 18.4091 11.6364C16.4091 11.6364 14.4091 11.6364 12.4091 11.6364C12.2273 11.6364 12.0909 11.6364 11.9091 11.5909C11.2273 11.4091 10.8182 10.8636 10.8182 10.1364C10.8182 8.72727 10.8182 7.31818 10.8182 5.95455C10.8182 4.5 10.8182 3 10.8182 1.54545C10.8182 0.818182 11.1818 0.318182 11.8636 0.0454546C11.9091 0.0454546 11.9545 0.0454546 12 0Z" fill="white"/>
<path d="M7.90905 0C7.9545 0.0909091 8.04541 0.0454545 8.13632 0.0454545C8.72723 0.227273 9.13632 0.772727 9.18177 1.45455C9.18177 2.68182 9.18177 3.95454 9.18177 5.18182C9.18177 6 8.54541 6.63636 7.72723 6.63636C5.63632 6.63636 3.54541 6.63636 1.49996 6.63636C0.818137 6.63636 0.318137 6.22727 0.0908647 5.59091C0.0908647 5.54545 0.0908647 5.5 0.0454102 5.5C0.0454102 4.04545 0.0454102 2.59091 0.0454102 1.18182C0.0908647 1.13636 0.0908647 1.09091 0.136319 1C0.227228 0.590909 0.499956 0.272727 0.909046 0.136364C0.999955 0.0909091 1.09086 0.0454545 1.22723 0C3.4545 0 5.68177 0 7.90905 0Z" fill="white"/>
<path d="M12 20C12 19.9546 11.9091 19.9546 11.9091 19.9546C11.2727 19.7273 10.8636 19.2273 10.8636 18.5455C10.8636 17.3182 10.8636 16.0455 10.8636 14.8182C10.8636 14 11.5 13.3636 12.3182 13.3636C14.4091 13.3636 16.5 13.3636 18.5455 13.3636C19.2727 13.3636 19.7727 13.8182 19.9546 14.5C19.9546 14.5455 19.9546 14.5455 20 14.5455C20 16 20 17.4091 20 18.8636C19.9546 18.9091 19.9546 18.9546 19.9091 19.0455C19.7727 19.4546 19.5 19.7727 19.0909 19.9546C19 20 18.8636 20.0455 18.7727 20.0455C16.5 20 14.2273 20 12 20Z" fill="white"/>
</g>
<defs>
<clipPath id="clip0_2_330">
<rect width="20" height="20" fill="white"/>
</clipPath>
</defs>
</svg>
