<svg width="14" height="24" viewBox="0 0 14 24" fill="none" xmlns="http://www.w3.org/2000/svg">
<g clip-path="url(#clip0_2_473)">
<path d="M0.274299 24C1.31819e-05 23.7943 -0.0685582 23.6571 0.0685846 23.3143C1.50858 19.8857 2.94858 16.4571 4.38858 13.0286C4.38858 12.96 4.45716 12.8914 4.45716 12.8229C4.38858 12.8229 4.32001 12.8229 4.25144 12.8229C3.01716 12.8229 1.78287 12.8229 0.480013 12.8229C1.32024e-05 12.8229 -0.13713 12.5486 0.0685846 12.1371C2.05716 8.16 4.04573 4.25143 5.96573 0.342857C6.10287 0.0685714 6.24001 0 6.5143 0C8.57144 0 10.56 0 12.6172 0C12.8229 0 13.0286 0 13.0972 0.205714C13.2343 0.411429 13.0972 0.548571 13.0286 0.754286C11.52 3.08571 10.08 5.41714 8.57144 7.74857C8.50287 7.81714 8.50287 7.88571 8.4343 8.02286C8.57144 8.02286 8.64001 8.02286 8.70858 8.02286C10.1486 8.02286 11.5886 8.02286 13.0286 8.02286C13.1657 8.02286 13.3029 8.02286 13.44 8.09143C13.6457 8.22857 13.6457 8.50286 13.44 8.70857C12.8914 9.32571 12.3429 10.0114 11.7943 10.6286C8.22859 14.9486 4.5943 19.2686 0.891442 23.5886C0.82287 23.7257 0.685728 23.8629 0.548585 24C0.411442 24 0.34287 24 0.274299 24Z" fill="white"/>
</g>
<defs>
<clipPath id="clip0_2_473">
<rect width="13.5771" height="24" fill="white"/>
</clipPath>
</defs>
</svg>
