<svg width="24" height="24" viewBox="0 0 24 24" fill="none" xmlns="http://www.w3.org/2000/svg">
<g clip-path="url(#clip0_2_450)">
<path d="M14.3039 5.71429H5.30615V14.712H14.3039V5.71429Z" fill="white"/>
<path d="M18.3674 9.63265H9.36963V18.6304H18.3674V9.63265Z" fill="white"/>
<path d="M22.6122 22.9388H1.06122V1.38775H22.6122V22.9388ZM1.71428 22.2857H21.8775V2.04082H1.71428V22.2857Z" fill="white"/>
<path d="M22.8572 23.1837H0.816345V1.14286H22.8572V23.1837ZM1.22451 22.7755H22.3674V1.55102H1.22451V22.7755ZM22.1225 22.449H1.55104V1.87755H22.1225V22.449ZM1.9592 22.0408H21.7143V2.28571H1.9592V22.0408Z" fill="white"/>
<path d="M1.38776 2.77551C2.15419 2.77551 2.77551 2.15419 2.77551 1.38776C2.77551 0.621319 2.15419 0 1.38776 0C0.621319 0 0 0.621319 0 1.38776C0 2.15419 0.621319 2.77551 1.38776 2.77551Z" fill="white"/>
<path d="M1.38776 24C2.15419 24 2.77551 23.3787 2.77551 22.6122C2.77551 21.8458 2.15419 21.2245 1.38776 21.2245C0.621319 21.2245 0 21.8458 0 22.6122C0 23.3787 0.621319 24 1.38776 24Z" fill="white"/>
<path d="M22.449 24C23.2154 24 23.8367 23.3787 23.8367 22.6122C23.8367 21.8458 23.2154 21.2245 22.449 21.2245C21.6825 21.2245 21.0612 21.8458 21.0612 22.6122C21.0612 23.3787 21.6825 24 22.449 24Z" fill="white"/>
<path d="M22.449 2.77551C23.2154 2.77551 23.8367 2.15419 23.8367 1.38776C23.8367 0.621319 23.2154 0 22.449 0C21.6825 0 21.0612 0.621319 21.0612 1.38776C21.0612 2.15419 21.6825 2.77551 22.449 2.77551Z" fill="white"/>
</g>
<defs>
<clipPath id="clip0_2_450">
<rect width="23.8367" height="24" fill="white"/>
</clipPath>
</defs>
</svg>
