<svg width="24" height="24" viewBox="0 0 24 24" fill="none" xmlns="http://www.w3.org/2000/svg">
<path d="M15.4286 0C17.6914 0 20.0229 0 22.2857 0C23.04 0 23.7257 0.685714 23.9314 1.71429C24.1371 2.74286 23.8629 3.77143 23.2457 4.38857C22.9714 4.66286 22.6971 4.8 22.2857 4.8C17.6914 4.8 13.0971 4.8 8.43429 4.8C7.54286 4.8 6.78857 3.70286 6.78857 2.4C6.78857 1.09714 7.54286 0 8.50286 0C10.8343 0 13.0971 0 15.4286 0Z" fill="white"/>
<path d="M15.4285 9.60001C17.6914 9.60001 20.0228 9.60001 22.2857 9.60001C23.04 9.60001 23.7257 10.2857 23.9314 11.3143C24.1371 12.3429 23.8628 13.3714 23.2457 13.9886C22.9714 14.2629 22.6285 14.4 22.2857 14.4C17.6914 14.4 13.0971 14.4 8.43426 14.4C7.47426 14.4 6.71997 13.3029 6.71997 12C6.71997 10.6971 7.47426 9.60001 8.43426 9.60001C10.8343 9.60001 13.0971 9.60001 15.4285 9.60001Z" fill="white"/>
<path d="M15.36 24C13.0971 24 10.8343 24 8.50283 24C7.47426 24 6.71997 22.9029 6.71997 21.5314C6.71997 20.2286 7.47426 19.2 8.36568 19.1314C9.11997 19.1314 9.87426 19.1314 10.6285 19.1314C14.4685 19.1314 18.3085 19.1314 22.1485 19.1314C23.1085 19.1314 23.9314 20.16 23.9314 21.4629C23.9314 22.8343 23.1771 23.9314 22.2171 23.9314C20.0914 23.9314 17.8971 23.9314 15.7714 23.9314C15.7028 24 15.5657 24 15.36 24Z" fill="white"/>
<path d="M0 2.4C0 1.02857 1.09714 0 2.46857 0C3.77143 0 4.86857 1.09714 4.8 2.46857C4.8 3.77143 3.70286 4.86857 2.4 4.8C1.09714 4.8 0 3.70286 0 2.4Z" fill="white"/>
<path d="M4.8 12C4.8 13.3714 3.70286 14.4 2.4 14.4C1.09714 14.4 0 13.3029 0 12C0 10.6286 1.09714 9.60001 2.4 9.60001C3.77143 9.60001 4.8 10.6971 4.8 12Z" fill="white"/>
<path d="M4.8 21.6C4.8 22.9029 3.77143 24 2.4 24C1.09714 24 0 22.9029 0 21.6C0 20.2286 1.09714 19.2 2.4 19.2C3.70286 19.1314 4.8 20.2286 4.8 21.6Z" fill="white"/>
</svg>
