<svg width="24" height="24" viewBox="0 0 24 24" fill="none" xmlns="http://www.w3.org/2000/svg">
<path d="M2.4 16.0457H0.891429C0.411429 16.0457 0 15.6343 0 15.1543V3.84H2.4V16.0457Z" fill="white"/>
<path d="M23.04 15.9771H21.5314V3.77142H24V15.0857C24 15.5657 23.5886 15.9771 23.04 15.9771Z" fill="white"/>
<path d="M12 3.77142H22.4915C22.6286 3.77142 22.7657 3.90857 22.7657 4.04571V15.0171C22.7657 15.7029 22.4229 15.9771 21.8057 15.9771C21.2572 15.9771 20.7772 15.9771 20.16 15.9771C20.0229 15.9771 19.8857 15.9771 19.8172 15.84C18.8572 14.88 17.2115 14.88 16.2515 15.84C16.1829 15.9086 16.0457 15.9771 15.9086 15.9771C15.5657 15.9771 15.1543 15.9771 14.8115 15.9771C14.6743 15.9771 14.6057 15.9771 14.6057 15.7714C14.5372 14.4686 13.44 13.44 12 13.44C10.6286 13.44 9.53146 14.4686 9.39431 15.7714C9.39431 15.9086 9.32574 15.9771 9.1886 15.9771C9.05146 15.9771 8.84574 15.9771 8.7086 15.9771C8.2286 15.9771 7.81717 15.9086 7.33717 15.6343C6.37717 14.88 4.93717 15.0171 4.11431 15.9086C4.04574 15.9771 3.9086 16.0457 3.77146 16.0457C3.22289 16.0457 2.67431 16.0457 2.05717 16.0457C1.57717 15.9771 1.23431 15.6343 1.23431 15.0857C1.23431 11.3829 1.23431 7.74857 1.23431 4.04571C1.23431 3.83999 1.30289 3.83999 1.5086 3.83999C4.93717 3.77142 8.50289 3.77142 12 3.77142ZM11.9315 5.07428C11.5886 5.07428 11.3829 5.21142 11.1772 5.48571C10.9029 5.82857 10.6972 6.24 10.4229 6.58285C10.3543 6.72 10.2857 6.78857 10.1486 6.78857C9.73717 6.85714 9.32574 6.99428 8.98289 7.13142C8.2286 7.33714 7.95431 8.16 8.43431 8.77714C8.64003 9.05142 8.91431 9.39428 9.1886 9.66857C9.32574 9.80571 9.32574 9.87428 9.32574 10.08C9.32574 10.4914 9.25717 10.9029 9.25717 11.3143C9.1886 12.0686 9.80574 12.5486 10.56 12.2743C11.04 12.1371 11.4515 11.9314 12 11.7943C12.0686 11.7257 12.2057 11.7257 12.2743 11.7943C12.6857 11.9314 13.1657 12.1371 13.7143 12.2743C14.4 12.48 15.0857 12.0686 15.0172 11.3829C15.0172 10.9714 15.0172 10.56 14.9486 10.1486C14.9486 10.0114 14.9486 9.87428 15.0857 9.80571C15.36 9.53142 15.5657 9.25714 15.7715 8.98285C16.32 8.29714 16.0457 7.54285 15.2229 7.33714C14.88 7.26857 14.4686 7.13142 14.1257 7.06285C13.9886 7.06285 13.8515 6.92571 13.7829 6.85714C13.5086 6.17142 13.2343 5.82857 13.0286 5.48571C12.5486 5.21142 12.2743 5.07428 11.9315 5.07428Z" fill="white"/>
<path d="M12 2.94857C8.50285 2.94857 4.93714 2.94857 1.44 2.94857C1.23428 2.94857 1.16571 2.88 1.16571 2.67429C1.16571 2.46857 1.16571 2.26286 1.16571 2.12571C1.16571 1.64571 1.50857 1.30286 2.05714 1.30286C2.53714 1.30286 3.01714 1.30286 3.63428 1.30286C3.77143 1.30286 3.84 1.23429 3.84 1.09714C3.84 0.891429 3.84 0.685714 3.84 0.48C3.77142 0.137143 3.97714 0 4.18285 0C4.38857 0 4.59428 0.137143 4.59428 0.411429C4.59428 0.617143 4.59428 0.822857 4.59428 1.02857C4.59428 1.16571 4.59428 1.23429 4.8 1.23429C5.69142 1.23429 6.58285 1.23429 7.47428 1.23429C7.61142 1.23429 7.68 1.23429 7.68 1.02857C7.68 0.822857 7.68 0.617143 7.68 0.411429C7.61142 0.205714 7.81714 0 8.02285 0C8.29714 0 8.43428 0.137143 8.43428 0.411429C8.43428 0.617143 8.43428 0.822857 8.43428 1.09714C8.43428 1.23429 8.43428 1.23429 8.57142 1.23429C9.46285 1.23429 10.4229 1.23429 11.3143 1.23429C11.4514 1.23429 11.4514 1.16571 11.4514 1.09714C11.4514 0.891429 11.4514 0.685714 11.4514 0.411429C11.5886 0.137143 11.7257 0 12 0C12.2743 0 12.4114 0.137143 12.4114 0.48C12.4114 0.685714 12.4114 0.891429 12.4114 1.09714C12.4114 1.23429 12.4114 1.23429 12.5486 1.23429C13.44 1.23429 14.4 1.23429 15.2229 1.23429C15.36 1.23429 15.36 1.16571 15.36 1.09714C15.36 0.891429 15.36 0.685714 15.36 0.48C15.36 0.205714 15.5657 0 15.7714 0C16.0457 0 16.1829 0.205714 16.1829 0.48C16.1829 0.685714 16.1829 0.891429 16.1829 1.09714C16.1829 1.23429 16.2514 1.23429 16.32 1.23429C17.2114 1.23429 18.1714 1.23429 19.0629 1.23429C19.2 1.23429 19.2 1.16571 19.2 1.09714C19.2 0.891429 19.2 0.685714 19.2 0.411429C19.3371 0.205714 19.4743 0 19.7486 0C20.0229 0 20.16 0.205714 20.16 0.48C20.16 0.685714 20.16 0.891429 20.16 1.02857C20.16 1.23429 20.16 1.30286 20.3657 1.30286H21.8057C22.2857 1.30286 22.6971 1.71429 22.6971 2.19429V2.81143C22.6971 2.94857 22.6971 2.94857 22.56 2.94857C22.4914 2.94857 22.4229 2.94857 22.3543 2.94857C18.9943 2.94857 15.4286 2.94857 12 2.94857Z" fill="white"/>
<path d="M11.9314 24C11.04 24 10.08 24 9.12001 24C8.9143 24 8.9143 23.9314 8.9143 23.7943C8.9143 22.9029 8.84573 22.0114 8.98287 21.12C9.12001 19.7486 10.3543 18.6514 11.7257 18.5143C13.2343 18.4457 14.5372 19.3371 14.88 20.7086C14.9486 20.9829 14.9486 21.2571 14.9486 21.5314C14.9486 22.2857 14.9486 23.04 14.9486 23.7943C14.9486 24 14.88 24 14.7429 24C13.8514 24 12.8914 24 11.9314 24Z" fill="white"/>
<path d="M5.41712 24C4.66283 24 3.83997 24 3.08569 24C2.8114 24 2.8114 23.9314 2.8114 23.7257C2.8114 23.2457 2.8114 22.8343 2.94854 22.3543C3.49712 20.2286 6.23997 19.4743 7.88569 20.9829C7.95426 21.0514 8.02283 21.12 8.02283 21.3257C8.02283 21.8743 7.95426 22.4914 7.95426 23.04C8.0914 24 8.0914 24 7.81712 24C7.06283 24 6.23997 24 5.41712 24Z" fill="white"/>
<path d="M18.5143 24H16.1829C16.0457 24 15.9086 23.8628 15.9086 23.7257V21.2571C15.9086 21.12 15.9771 21.0514 16.0457 20.9828C16.8686 20.2286 17.9657 20.0228 18.9943 20.3657C20.0914 20.7086 20.7771 21.4628 21.0514 22.56C21.12 22.9714 21.12 23.4514 21.12 23.8628C21.12 24 20.9829 24 20.9143 24C20.0229 24 19.2686 24 18.5143 24Z" fill="white"/>
<path d="M18.0343 15.9771C18.9257 15.9771 19.7485 16.7314 19.8171 17.6229C19.8171 18.5829 19.0628 19.3371 18.0343 19.3371C17.1428 19.3371 16.32 18.5829 16.2514 17.6914C16.32 16.7314 17.0743 15.9771 18.0343 15.9771Z" fill="white"/>
<path d="M6.10283 15.9771C6.65141 16.0457 7.19998 16.3886 7.47426 16.8686C8.15998 18.1029 7.13141 19.4057 5.82855 19.3371C5.27998 19.2686 4.73141 18.9257 4.45712 18.4457C3.70283 17.2114 4.73141 15.9086 6.10283 15.9771Z" fill="white"/>
<path d="M12 14.3314C12.96 14.3314 13.7143 15.0857 13.7143 15.9771C13.7143 16.7314 13.2343 17.4171 12.48 17.6229C11.3143 17.9657 10.1485 17.0057 10.2171 15.84C10.3543 15.0171 11.1085 14.3314 12 14.3314Z" fill="white"/>
<path d="M13.8514 11.3829C13.3714 11.2457 12.8914 11.04 12.3428 10.8343C12.0685 10.7657 11.8628 10.7657 11.5885 10.8343C11.1771 11.04 10.6971 11.1771 10.1485 11.3143C10.0114 11.3829 9.94283 11.3143 9.94283 11.1771C9.94283 10.6971 10.0114 10.2171 10.0114 9.66857C10.0114 9.46285 9.94283 9.32571 9.87426 9.18857C9.59997 8.84571 9.32569 8.50285 9.0514 8.22857C8.84569 7.95428 8.84569 7.88571 9.18854 7.81714C9.59997 7.67999 10.08 7.61142 10.56 7.47428C10.7657 7.40571 10.8343 7.33714 10.9714 7.19999C11.2457 6.78857 11.52 6.37714 11.7943 5.96571C11.9314 5.75999 12 5.82857 12.0685 5.96571C12.3428 6.37714 12.6171 6.78857 12.8914 7.19999C12.96 7.33714 13.0971 7.40571 13.3028 7.47428C13.7828 7.61142 14.1943 7.67999 14.7428 7.81714C15.0171 7.88571 15.0171 7.95428 14.88 8.15999C14.6057 8.50285 14.3314 8.84571 14.0571 9.18857C13.92 9.32571 13.92 9.46285 13.92 9.66857C13.8514 10.2857 13.8514 10.8343 13.8514 11.3829Z" fill="white"/>
<path d="M24 2.94857H21.12V1.30286H23.2457C23.6571 1.30286 24 1.64571 24 2.05714V2.94857Z" fill="white"/>
<path d="M2.05714 1.30286H0.96C0.411428 1.30286 0 1.71428 0 2.26286V2.94857H2.05714V1.30286Z" fill="white"/>
</svg>
